<svg width="171" height="44" viewBox="0 0 171 44" fill="none" xmlns="http://www.w3.org/2000/svg">
<circle cx="22" cy="22" r="22" fill="#FFB500"/>
<path d="M15.2969 28.5625H10.75C10.5014 28.5625 10.2629 28.4637 10.0871 28.2879C9.91127 28.1121 9.8125 27.8737 9.8125 27.625C9.8125 27.3764 9.91127 27.1379 10.0871 26.9621C10.2629 26.7863 10.5014 26.6875 10.75 26.6875H15.2969C15.5455 26.6875 15.784 26.7863 15.9598 26.9621C16.1356 27.1379 16.2344 27.3764 16.2344 27.625C16.2344 27.8737 16.1356 28.1121 15.9598 28.2879C15.784 28.4637 15.5455 28.5625 15.2969 28.5625ZM19.0469 30.4375H12.625C12.3764 30.4375 12.1379 30.5363 11.9621 30.7121C11.7863 30.8879 11.6875 31.1264 11.6875 31.375C11.6875 31.6237 11.7863 31.8621 11.9621 32.0379C12.1379 32.2137 12.3764 32.3125 12.625 32.3125H19.0469C19.2955 32.3125 19.534 32.2137 19.7098 32.0379C19.8856 31.8621 19.9844 31.6237 19.9844 31.375C19.9844 31.1264 19.8856 30.8879 19.7098 30.7121C19.534 30.5363 19.2955 30.4375 19.0469 30.4375ZM34.0891 26.527L30.734 24.85C29.7975 24.3856 29.0099 23.6682 28.4604 22.779C27.9109 21.8898 27.6215 20.8644 27.625 19.8192V16.375C27.625 16.1278 27.5274 15.8906 27.3533 15.715C27.1793 15.5394 26.9429 15.4397 26.6957 15.4375C25.2043 15.4381 23.7736 14.8471 22.7175 13.7941C21.6614 12.7411 21.0662 11.3121 21.0625 9.82071C21.0639 9.64561 21.0162 9.47363 20.9248 9.32424C20.8335 9.17485 20.7021 9.05404 20.5456 8.97548C20.3891 8.89693 20.2137 8.86378 20.0394 8.87978C19.865 8.89578 19.6986 8.9603 19.559 9.06603L12.2863 14.5797C12.2333 14.6202 12.1895 14.6715 12.1579 14.7302C12.1263 14.789 12.1076 14.8538 12.103 14.9204C12.0985 14.9869 12.1082 15.0537 12.1315 15.1162C12.1549 15.1787 12.1912 15.2355 12.2383 15.2828L18.2664 21.3109C18.4393 21.4791 18.5425 21.7062 18.5555 21.947C18.5685 22.1878 18.4904 22.4247 18.3367 22.6106C18.2525 22.7081 18.1491 22.7872 18.0329 22.843C17.9167 22.8987 17.7903 22.93 17.6616 22.9347C17.5328 22.9394 17.4044 22.9176 17.2845 22.8705C17.1645 22.8234 17.0556 22.752 16.9645 22.6609L10.7535 16.45C10.7006 16.3969 10.6357 16.3572 10.5643 16.3343C10.4929 16.3115 10.417 16.3061 10.3431 16.3186C10.2692 16.3311 10.1993 16.3612 10.1394 16.4062C10.0795 16.4513 10.0313 16.5102 9.99883 16.5777C9.83137 16.9277 9.77661 17.321 9.8421 17.7035C9.90759 18.0859 10.0901 18.4386 10.3645 18.7129L23.6875 32.0383C23.7746 32.1253 23.8781 32.1943 23.9919 32.2414C24.1057 32.2884 24.2276 32.3126 24.3508 32.3125H33.25C33.7473 32.3125 34.2242 32.115 34.5758 31.7633C34.9275 31.4117 35.125 30.9348 35.125 30.4375V28.2039C35.1261 27.8556 35.0297 27.5138 34.8466 27.2175C34.6635 26.9211 34.4011 26.6819 34.0891 26.527Z" fill="#1F2524"/>
<path d="M57.592 16.392V19.896H63.088V22.992H57.592V26.76H63.808V30H53.488V13.152H63.808V16.392H57.592ZM70.5764 12.24V30H66.4724V12.24H70.5764ZM75.6145 15.216C74.8945 15.216 74.3025 15.008 73.8385 14.592C73.3905 14.16 73.1665 13.632 73.1665 13.008C73.1665 12.368 73.3905 11.84 73.8385 11.424C74.3025 10.992 74.8945 10.776 75.6145 10.776C76.3185 10.776 76.8945 10.992 77.3425 11.424C77.8065 11.84 78.0385 12.368 78.0385 13.008C78.0385 13.632 77.8065 14.16 77.3425 14.592C76.8945 15.008 76.3185 15.216 75.6145 15.216ZM77.6545 16.608V30H73.5505V16.608H77.6545ZM88.0926 26.52V30H86.0046C84.5166 30 83.3566 29.64 82.5246 28.92C81.6926 28.184 81.2766 26.992 81.2766 25.344V20.016H79.6446V16.608H81.2766V13.344H85.3806V16.608H88.0686V20.016H85.3806V25.392C85.3806 25.792 85.4766 26.08 85.6686 26.256C85.8606 26.432 86.1806 26.52 86.6286 26.52H88.0926ZM103.003 23.064C103.003 23.432 102.979 23.824 102.931 24.24H93.6426C93.7066 25.088 93.9706 25.736 94.4346 26.184C94.8986 26.632 95.4826 26.856 96.1866 26.856C97.2106 26.856 97.9226 26.424 98.3226 25.56H102.691C102.467 26.44 102.059 27.232 101.467 27.936C100.891 28.64 100.163 29.192 99.2826 29.592C98.4026 29.992 97.4186 30.192 96.3306 30.192C95.0186 30.192 93.8506 29.912 92.8266 29.352C91.8026 28.792 91.0026 27.992 90.4266 26.952C89.8506 25.912 89.5626 24.696 89.5626 23.304C89.5626 21.912 89.8426 20.696 90.4026 19.656C90.9786 18.616 91.7786 17.816 92.8026 17.256C93.8266 16.696 95.0026 16.416 96.3306 16.416C97.6266 16.416 98.7786 16.688 99.7866 17.232C100.795 17.776 101.579 18.552 102.139 19.56C102.715 20.568 103.003 21.736 103.003 23.064ZM98.8026 22.152C98.8026 21.384 98.5626 20.784 98.0826 20.352C97.6026 19.92 97.0026 19.704 96.2826 19.704C95.5786 19.704 94.9866 19.92 94.5066 20.352C94.0426 20.768 93.7546 21.368 93.6426 22.152H98.8026ZM114.936 30L109.272 22.56V30H105.168V13.152H109.272V20.544L114.888 13.152H119.712L113.184 21.408L119.952 30H114.936ZM123.966 15.216C123.246 15.216 122.654 15.008 122.19 14.592C121.742 14.16 121.518 13.632 121.518 13.008C121.518 12.368 121.742 11.84 122.19 11.424C122.654 10.992 123.246 10.776 123.966 10.776C124.67 10.776 125.246 10.992 125.694 11.424C126.158 11.84 126.39 12.368 126.39 13.008C126.39 13.632 126.158 14.16 125.694 14.592C125.246 15.008 124.67 15.216 123.966 15.216ZM126.006 16.608V30H121.902V16.608H126.006ZM128.164 23.304C128.164 21.912 128.444 20.696 129.004 19.656C129.58 18.616 130.372 17.816 131.38 17.256C132.404 16.696 133.572 16.416 134.884 16.416C136.564 16.416 137.964 16.856 139.084 17.736C140.22 18.616 140.964 19.856 141.316 21.456H136.948C136.58 20.432 135.868 19.92 134.812 19.92C134.06 19.92 133.46 20.216 133.012 20.808C132.564 21.384 132.34 22.216 132.34 23.304C132.34 24.392 132.564 25.232 133.012 25.824C133.46 26.4 134.06 26.688 134.812 26.688C135.868 26.688 136.58 26.176 136.948 25.152H141.316C140.964 26.72 140.22 27.952 139.084 28.848C137.948 29.744 136.548 30.192 134.884 30.192C133.572 30.192 132.404 29.912 131.38 29.352C130.372 28.792 129.58 27.992 129.004 26.952C128.444 25.912 128.164 24.696 128.164 23.304ZM151.695 30L147.615 24.384V30H143.511V12.24H147.615V22.056L151.671 16.608H156.735L151.167 23.328L156.783 30H151.695ZM163.771 30.192C162.619 30.192 161.587 29.992 160.675 29.592C159.763 29.192 159.043 28.648 158.515 27.96C157.987 27.256 157.691 26.472 157.627 25.608H161.683C161.731 26.104 161.939 26.504 162.307 26.808C162.691 27.096 163.171 27.24 163.747 27.24C164.259 27.24 164.651 27.136 164.923 26.928C165.211 26.72 165.355 26.44 165.355 26.088C165.355 25.704 165.155 25.416 164.755 25.224C164.355 25.032 163.699 24.832 162.787 24.624C161.827 24.4 161.027 24.168 160.387 23.928C159.763 23.688 159.219 23.304 158.755 22.776C158.307 22.232 158.083 21.512 158.083 20.616C158.083 19.832 158.291 19.128 158.707 18.504C159.139 17.864 159.763 17.36 160.579 16.992C161.395 16.608 162.371 16.416 163.507 16.416C165.187 16.416 166.507 16.832 167.467 17.664C168.443 18.496 169.003 19.6 169.147 20.976H165.355C165.291 20.48 165.083 20.096 164.731 19.824C164.395 19.536 163.947 19.392 163.387 19.392C162.907 19.392 162.539 19.488 162.283 19.68C162.027 19.872 161.899 20.144 161.899 20.496C161.899 20.88 162.099 21.168 162.499 21.36C162.915 21.552 163.555 21.744 164.419 21.936C165.395 22.176 166.203 22.424 166.843 22.68C167.483 22.92 168.035 23.32 168.499 23.88C168.963 24.424 169.195 25.16 169.195 26.088C169.195 26.872 168.979 27.576 168.547 28.2C168.115 28.824 167.483 29.312 166.651 29.664C165.835 30.016 164.875 30.192 163.771 30.192Z" fill="#1F2524"/>
</svg>
